<svg xmlns="http://www.w3.org/2000/svg" viewBox="0 0 697.23 133.23"><defs><style>.cls-1{fill:#fff;}</style></defs><title>Dcrypt_Wordmark_White</title><g id="Layer_2" data-name="Layer 2"><g id="Layer_3" data-name="Layer 3"><path class="cls-1" d="M196.66,66.52v.19a27.58,27.58,0,0,0,.47,5.09,26,26,0,0,0,1.35,4.69,24.77,24.77,0,0,0,2.13,4.21,23.78,23.78,0,0,0,2.84,3.64,23,23,0,0,0,3.46,3,22.71,22.71,0,0,0,4,2.25A23.13,23.13,0,0,0,215.44,91a23.82,23.82,0,0,0,2.47.38c.83.08,1.67.12,2.5.12.55,0,1.09,0,1.64,0s1.09-.07,1.63-.12,1-.11,1.46-.19,1-.17,1.45-.27a23.21,23.21,0,0,0,2.63-.73,22.48,22.48,0,0,0,2.42-1,24.33,24.33,0,0,0,2.29-1.26c.76-.47,1.5-1,2.22-1.53s1.48-1.18,2.19-1.81,1.49-1.37,2.21-2.08h0l5.88,6c-.83.82-1.68,1.63-2.55,2.4s-1.76,1.51-2.68,2.21-1.87,1.36-2.86,2a32.59,32.59,0,0,1-3.07,1.69,30.84,30.84,0,0,1-3.32,1.36,31.57,31.57,0,0,1-3.57,1q-.95.21-1.91.36t-1.93.25c-.68.07-1.37.12-2.06.15s-1.38.05-2.06.05c-1.12,0-2.24-.06-3.35-.17a32.36,32.36,0,0,1-3.31-.51,31.51,31.51,0,0,1-6.15-1.94,31,31,0,0,1-5.5-3.08,31.39,31.39,0,0,1-4.72-4.07,32.13,32.13,0,0,1-3.84-4.92,33.14,33.14,0,0,1-2.86-5.64,34.37,34.37,0,0,1-1.78-6.21,36,36,0,0,1-.61-6.63v-.19a35.94,35.94,0,0,1,.61-6.6,34.41,34.41,0,0,1,1.77-6.19,33.06,33.06,0,0,1,2.84-5.64,32,32,0,0,1,3.84-4.93Q198.44,42,199.63,41a31.16,31.16,0,0,1,8-5A31.94,31.94,0,0,1,213.88,34a33.06,33.06,0,0,1,3.37-.51c1.13-.11,2.27-.16,3.4-.17q1,0,2,0t2,.15a35.18,35.18,0,0,1,3.73.57,32.73,32.73,0,0,1,3.48.93,32.11,32.11,0,0,1,3.24,1.26,33.23,33.23,0,0,1,3,1.55q1.43.83,2.78,1.8c.89.63,1.75,1.3,2.59,2s1.55,1.34,2.3,2L240.27,50l-.13-.12A38.76,38.76,0,0,0,236,46.49c-.69-.49-1.41-1-2.14-1.39a24.9,24.9,0,0,0-2.24-1.16,23.74,23.74,0,0,0-2.39-.93,24.34,24.34,0,0,0-2.59-.7,26.82,26.82,0,0,0-2.85-.44q-.79-.08-1.58-.12t-1.58,0c-.86,0-1.71,0-2.56.12a24.56,24.56,0,0,0-2.54.38A23.56,23.56,0,0,0,211,43.66a22.7,22.7,0,0,0-5.87,3.67q-.87.75-1.66,1.58a23.65,23.65,0,0,0-2.84,3.64q-.63,1-1.16,2.05t-1,2.16q-.44,1.14-.78,2.31t-.56,2.37A27.6,27.6,0,0,0,196.66,66.52Z"/><path class="cls-1" d="M8,87.83h8V75h8v34.82H34.68v8H16v-22H8v30H53A61.67,61.67,0,0,0,68.11,124l2.73,7a71.87,71.87,0,0,1-18.08,2.25H0V49.86H8Z"/><path class="cls-1" d="M34.38,15.43H52.76q2.69,0,5.38.24t5.16.73q2.51.48,5,1.21A50.29,50.29,0,0,1,73,19.3q2.36,1,4.62,2.18,1.15.61,2.26,1.28t2.19,1.38q2.12,1.4,4.1,3t3.73,3.32q1.78,1.74,3.38,3.65t3,4q.72,1.05,1.4,2.14T99,42.45a48.92,48.92,0,0,1,2.2,4.5q.28.66.55,1.34l-7.7,2.29q-.25-.61-.52-1.21c-.54-1.2-1.14-2.37-1.79-3.52q-.57-1-1.2-2-.84-1.31-1.76-2.55a43.2,43.2,0,0,0-6-6.61,44.26,44.26,0,0,0-3.54-2.83q-1.33-1-2.73-1.82-1-.62-2-1.2-1.72-1-3.52-1.75a42.22,42.22,0,0,0-4.24-1.61,43,43,0,0,0-4.42-1.15,45.32,45.32,0,0,0-4.64-.7c-1.63-.16-3.27-.24-4.92-.24H24V67H16V15.43H26.38v-8H8V33.86H0V0H53A72,72,0,0,1,69.68,1.91L67,9A63,63,0,0,0,52.76,7.43H34.38Z"/><path class="cls-1" d="M107.28,92.29l-6.92-4q.47-1,.89-2a47.73,47.73,0,0,0,2.92-9.42,49.63,49.63,0,0,0,.74-5c.17-1.72.25-3.45.25-5.18s-.08-3.51-.25-5.25a50.55,50.55,0,0,0-.74-5l-.1-.48-7.7,2.29q.35,1.84.54,3.71a46.51,46.51,0,0,1,.24,4.75,45.7,45.7,0,0,1-.24,4.67,41.41,41.41,0,0,1-.69,4.41,39.72,39.72,0,0,1-2.75,8.29q-.8,1.74-1.76,3.4-.58,1-1.21,2-.87,1.36-1.84,2.65a43.22,43.22,0,0,1-6.07,6.57A44.42,44.42,0,0,1,79,101.5q-1.28.91-2.63,1.74-1,.62-2,1.19c-1.19.65-2.4,1.25-3.65,1.79s-2.3.94-3.48,1.33a42.65,42.65,0,0,1-4.36,1.2,46.34,46.34,0,0,1-9.93,1H42.67v8H53q2.66,0,5.31-.24t5.1-.73a50.56,50.56,0,0,0,9.67-2.9q2.36-1,4.62-2.18,1.15-.61,2.26-1.28t2.19-1.38q2.12-1.4,4.1-3t3.73-3.32q1.78-1.74,3.38-3.65t3-4l6.92,4a59.94,59.94,0,0,1-20.1,18.64l-.22.12,2.81,7.23,1.51-.82a66.18,66.18,0,0,0,25-24.2,64.15,64.15,0,0,0,9.14-33.45,64.51,64.51,0,0,0-9.14-33.65A66.38,66.38,0,0,0,87.35,8.86Q86,8.12,84.69,7.43L81.92,14.7l1.23.69a60,60,0,0,1,21.91,21.49,57,57,0,0,1,8.09,29.83A56.81,56.81,0,0,1,107.28,92.29Z"/><polygon class="cls-1" points="697.23 42.91 674.38 42.91 674.38 99.92 666.02 99.92 666.02 42.91 643.17 42.91 643.17 34.55 697.23 34.55 697.23 42.91"/><path class="cls-1" d="M344,74.82l.13,0a24.7,24.7,0,0,0,4-1.33,21,21,0,0,0,1.94-1,20.09,20.09,0,0,0,1.82-1.17l.68-.51.66-.53,0,0,0,0A18.68,18.68,0,0,0,356.24,67a18.13,18.13,0,0,0,2-3.65,19.35,19.35,0,0,0,1.14-3.9,22.13,22.13,0,0,0,.35-4v-.81a22.13,22.13,0,0,0-.35-4,19.35,19.35,0,0,0-1.14-3.9,18.13,18.13,0,0,0-2-3.65,18.68,18.68,0,0,0-2.94-3.21l0,0,0,0-.66-.53-.68-.51a20.09,20.09,0,0,0-1.82-1.17,21,21,0,0,0-1.94-1,24.71,24.71,0,0,0-4-1.33,30.14,30.14,0,0,0-4-.7,35.76,35.76,0,0,0-3.88-.2H308.76V99.92h8.36V75.7h17.29l17.18,24.23h10.25Zm-4.77-7.65a27.35,27.35,0,0,1-3,.16H317.13V42.82h19.18a27.35,27.35,0,0,1,3,.16,21.9,21.9,0,0,1,2.88.5,16.29,16.29,0,0,1,2.62.88c.39.17.77.36,1.14.57a11.57,11.57,0,0,1,1.07.68l.44.32.43.34A10.29,10.29,0,0,1,349.45,48a9.64,9.64,0,0,1,.6,1,9.87,9.87,0,0,1,.49,1,11,11,0,0,1,.64,2.21,13.75,13.75,0,0,1,.22,2.48v.81a13.75,13.75,0,0,1-.22,2.48,11,11,0,0,1-.64,2.21,9.87,9.87,0,0,1-.49,1,9.62,9.62,0,0,1-.6,1,10.29,10.29,0,0,1-1.59,1.74l-.43.34-.44.32a11.57,11.57,0,0,1-1.07.68c-.37.21-.75.4-1.14.57a16.28,16.28,0,0,1-2.62.88A21.9,21.9,0,0,1,339.28,67.18Z"/><polygon class="cls-1" points="442.41 99.92 442.41 73.96 416.16 33.31 426.11 33.31 446.6 65.03 467.25 33.31 477.23 33.31 450.77 73.94 450.77 99.92 442.41 99.92"/><path class="cls-1" d="M586.36,52.25a21.54,21.54,0,0,0-.73-3.28,19.77,19.77,0,0,0-1.22-3,18.86,18.86,0,0,0-3.83-5.18,19.57,19.57,0,0,0-1.64-1.4,21,21,0,0,0-2.74-1.77,23.28,23.28,0,0,0-3-1.37,26.38,26.38,0,0,0-3.3-1,30.49,30.49,0,0,0-3.53-.58,35.51,35.51,0,0,0-3.73-.19H538.46V99.92h8.36V77.41h15.09a34.79,34.79,0,0,0,3.66-.19,31.09,31.09,0,0,0,3.51-.57,27.8,27.8,0,0,0,3.32-1,24.84,24.84,0,0,0,3.1-1.35,22.45,22.45,0,0,0,2.83-1.75A20.94,20.94,0,0,0,580,71.21a19.89,19.89,0,0,0,2.26-2.41A19.35,19.35,0,0,0,584.15,66a19.62,19.62,0,0,0,1.35-3.11,20.85,20.85,0,0,0,.83-3.39,23.13,23.13,0,0,0,.28-3.61v-.19A24.3,24.3,0,0,0,586.36,52.25Zm-8.12,3.66a14.78,14.78,0,0,1-.17,2.3,12.45,12.45,0,0,1-.49,2A11.25,11.25,0,0,1,576.8,62a11,11,0,0,1-1,1.58,11.56,11.56,0,0,1-1.31,1.4,12.57,12.57,0,0,1-1,.83,14.12,14.12,0,0,1-1.78,1.1,16.5,16.5,0,0,1-2.05.89,19.42,19.42,0,0,1-2.32.67,22.82,22.82,0,0,1-2.56.42,26.39,26.39,0,0,1-2.78.14H546.83V42.82h15.76a27.14,27.14,0,0,1,2.85.15,22.18,22.18,0,0,1,2.56.42,18.1,18.1,0,0,1,2.26.66,14.8,14.8,0,0,1,1.95.87,12.07,12.07,0,0,1,2.59,1.87,10.52,10.52,0,0,1,2.14,2.89,11.39,11.39,0,0,1,.7,1.76,13.15,13.15,0,0,1,.45,2,15.93,15.93,0,0,1,.16,2.28Z"/></g></g></svg>